<svg xmlns="http://www.w3.org/2000/svg" viewBox="0 0 1440 320"><path fill="#ffe600" fill-opacity="1" d="M0,224L17.1,224C34.3,224,69,224,103,197.3C137.1,171,171,117,206,128C240,139,274,213,309,213.3C342.9,213,377,139,411,96C445.7,53,480,43,514,53.3C548.6,64,583,96,617,101.3C651.4,107,686,85,720,90.7C754.3,96,789,128,823,149.3C857.1,171,891,181,926,176C960,171,994,149,1029,128C1062.9,107,1097,85,1131,106.7C1165.7,128,1200,192,1234,218.7C1268.6,245,1303,235,1337,208C1371.4,181,1406,139,1423,117.3L1440,96L1440,0L1422.9,0C1405.7,0,1371,0,1337,0C1302.9,0,1269,0,1234,0C1200,0,1166,0,1131,0C1097.1,0,1063,0,1029,0C994.3,0,960,0,926,0C891.4,0,857,0,823,0C788.6,0,754,0,720,0C685.7,0,651,0,617,0C582.9,0,549,0,514,0C480,0,446,0,411,0C377.1,0,343,0,309,0C274.3,0,240,0,206,0C171.4,0,137,0,103,0C68.6,0,34,0,17,0L0,0Z"></path></svg>